<svg width="85" height="60" viewBox="0 0 98 70" fill="none" xmlns="http://www.w3.org/2000/svg">
<path d="M87.8423 54.4088C87.8567 56.5645 87.415 58.6988 86.5462 60.6711C86.6494 60.3264 86.7297 59.9817 86.81 59.614C87.1494 58.041 87.2576 56.4268 87.1312 54.8225C87.1312 54.7076 87.1312 54.5812 87.1312 54.4548C87.3606 54.3016 87.59 54.1407 87.8194 53.9722L87.8423 54.4088Z" fill="#FDCC68"/>
<path d="M90.1144 60.2615C90.1144 60.4568 90.0227 60.6522 89.9653 60.8475C90.3599 58.3958 90.0248 55.882 89.0018 53.62L88.7723 53.1374C88.9673 52.965 89.1738 52.8042 89.3574 52.6203C89.3637 52.6429 89.3637 52.6667 89.3574 52.6893C89.4377 52.8616 89.5065 53.0455 89.5753 53.2293C90.4175 55.4747 90.6045 57.9137 90.1144 60.2615Z" fill="#FDCC68"/>
<path d="M90.069 44.3589C89.7019 44.4623 89.3348 44.5312 88.9219 44.6002H88.7957C87.8297 44.7838 86.8525 44.9028 85.8707 44.9564C85.3659 44.9564 84.8612 44.9564 84.345 44.9564H83.2897C82.2635 44.9084 81.2409 44.801 80.227 44.6346C78.6623 44.3544 77.1264 43.9313 75.6387 43.3707C74.3545 42.8764 73.1149 42.2729 71.9336 41.5667L71.5092 41.3139C70.6787 40.7982 69.8818 40.2302 69.1233 39.6133C68.6757 40.084 68.127 40.4465 67.5189 40.6735C66.9108 40.9004 66.2591 40.9858 65.6132 40.9232L65.9917 41.0151L64.4661 40.7509H64.9708C64.2619 40.5664 63.6131 40.2003 63.0882 39.6886C62.5633 39.1769 62.1803 38.5371 61.9769 37.8323C61.7057 38.3807 61.3134 38.8601 60.8298 39.2341C60.2574 39.6576 59.5859 39.9267 58.8798 40.0155L57.2739 39.8891H57.1592C56.8495 39.7866 56.553 39.6478 56.2759 39.4754C55.9096 39.2667 55.5802 38.9988 55.3009 38.6826C54.8713 38.1894 54.5612 37.6035 54.3947 36.9705L53.89 37.1429C53.6361 37.4223 53.3557 37.6763 53.0526 37.9012L52.8347 38.0391L52.6741 38.131L52.2956 38.3149H52.1694C51.6765 38.5124 51.1516 38.6175 50.6208 38.6251C50.3843 38.648 50.1461 38.648 49.9096 38.6251C49.1631 38.5346 48.4531 38.2506 47.8496 37.8013C47.2462 37.3519 46.7701 36.7527 46.4684 36.0627C46.0804 36.5714 45.594 36.9965 45.0381 37.3124C44.4823 37.6283 43.8685 37.8286 43.2336 37.9012H42.4765C41.9635 37.8723 41.4591 37.7557 40.9853 37.5565C40.191 37.243 39.4998 36.7138 38.9894 36.0283C38.8111 36.2855 38.6032 36.5207 38.37 36.7292C37.5988 37.3977 36.6338 37.8005 35.617 37.8782H34.9631C34.6513 37.8514 34.3435 37.7897 34.0455 37.6944C33.6889 37.5847 33.3492 37.4261 33.036 37.2233C32.5131 36.9078 32.0665 36.48 31.7283 35.9708C31.5624 36.302 31.3499 36.6077 31.0975 36.8786C30.7887 37.2242 30.4242 37.5155 30.0192 37.7404C29.4745 38.0573 28.8681 38.2533 28.2412 38.3149H27.8397C27.532 38.3171 27.2247 38.2902 26.9221 38.2344C26.5579 38.1763 26.2055 38.0599 25.8782 37.8897C25.034 37.495 24.3355 36.8437 23.8823 36.0283C23.8348 36.2752 23.7657 36.5174 23.6758 36.7522C23.5621 37.0623 23.4078 37.356 23.217 37.6255L23.0105 37.3267C22.9247 37.2237 22.8443 37.1163 22.7696 37.005C21.9116 35.6821 21.4608 34.1357 21.4734 32.5582C21.4916 31.2043 21.8435 29.8759 22.4979 28.6911C23.1523 27.5063 24.0889 26.502 25.2244 25.7673C26.1609 25.1851 27.1521 24.6963 28.1839 24.308C30.9435 23.3051 33.794 22.5739 36.6952 22.1248C39.1667 21.7121 41.6686 21.5084 44.1742 21.5159H45.6998C45.8719 21.8376 46.0439 22.1593 46.2389 22.4696C47.833 25.089 49.9214 27.3722 52.3873 29.1915C55.0333 31.1379 58.0773 32.4722 61.3001 33.0982C60.2316 30.2835 59.6873 27.2964 59.6942 24.285C59.6942 23.7565 59.6942 23.2164 59.7516 22.6879C59.9466 22.6879 60.1416 22.8258 60.3366 22.8947C61.7569 23.4203 63.1179 24.0943 64.3973 24.9055C66.2701 26.0603 67.963 27.4851 69.4215 29.134L69.605 29.2604H69.6624C70.6604 30.285 71.7299 31.2373 72.8627 32.11L73.0119 32.202C73.8492 32.8339 74.721 33.4429 75.6157 33.9945C76.5647 34.5733 77.5451 35.0989 78.5523 35.5687C77.617 33.9241 76.9655 32.1333 76.6252 30.2716C76.4172 29.2235 76.3134 28.1573 76.3155 27.0887C76.3155 26.9049 76.3155 26.721 76.3155 26.5487C76.3155 26.4223 76.3155 26.2844 76.3155 26.158C76.5105 25.8822 76.694 25.6179 76.9005 25.3422C77.668 24.2773 78.4953 23.2568 79.3782 22.2857C81.695 19.6872 84.372 17.4351 87.3275 15.5983C88.7172 14.7314 90.1661 13.9634 91.6634 13.3002C92.7417 12.8176 93.8658 12.3694 95.0014 11.9673C94.0379 11.726 93.0399 11.5192 92.042 11.3698C90.7309 11.1849 89.4085 11.0928 88.0845 11.094H87.5454C87.4732 11.0826 87.3997 11.0826 87.3275 11.094C81.9035 11.2575 76.6531 13.0467 72.2548 16.2302C70.9732 17.2039 69.4326 17.7757 67.827 17.8734H67.3223C66.0915 17.8783 64.8757 17.6032 63.7664 17.069C63.2273 16.8048 62.6881 16.552 62.126 16.3222C61.8278 16.1843 61.5181 16.0579 61.1969 15.943C59.5699 15.2827 57.8987 14.7375 56.1956 14.3113C57.4921 13.9684 58.8165 13.7416 60.1531 13.6334C60.6004 13.6334 61.0478 13.5759 61.5066 13.5759H62.1949C62.6881 13.5759 63.1814 13.5759 63.6631 13.6449C63.3305 13.2887 63.0208 12.9555 62.6996 12.5878C62.1605 12.0018 61.6443 11.4387 61.1281 10.8182C60.4628 10.0714 59.8319 9.31299 59.201 8.52015C57.2509 6.10716 55.4156 3.59458 53.695 0.982422C50.1221 1.77185 46.6396 2.92696 43.3024 4.42956C39.5443 6.13182 35.9889 8.2517 32.7034 10.7493C32.1069 11.1974 31.5563 11.657 30.9254 12.1396C23.8216 12.3304 16.8843 14.3357 10.7711 17.9653L10.1976 18.2985L10.0026 18.4249L9.53229 18.7352C7.21324 20.1935 5.21419 22.1086 3.65644 24.3643C2.09868 26.62 1.01472 29.1692 0.470329 31.8573C0.433694 31.9657 0.406822 32.0772 0.390034 32.1905C0.128215 33.7084 -0.00226813 35.2462 2.9828e-05 36.7867C2.9828e-05 37.591 2.56225e-05 38.3723 0.103263 39.0847C0.350526 42.1338 1.12689 45.1162 2.39743 47.8979C3.47579 50.2576 4.88994 52.4482 6.59576 54.4015C7.29129 55.2185 8.03843 55.9899 8.83257 56.7111C8.83257 56.7111 8.99316 56.8145 9.0161 56.8605C9.03905 56.9064 9.0161 56.8605 8.90139 56.78C9.62405 57.4005 10.232 58.0095 10.9088 58.6415C11.2246 58.8699 11.4549 59.1977 11.563 59.5726C11.6711 59.9475 11.6508 60.3478 11.5053 60.7098C11.3676 61.3302 11.0579 62.5597 10.8858 63.1228C11.0235 63.2606 11.4135 63.1228 11.7117 62.9619C12.01 62.801 12.3312 62.7091 12.6753 62.5942C13.7048 62.1674 14.6762 61.6114 15.5659 60.9396C15.8215 60.8002 16.0668 60.6427 16.3001 60.4685C17.2292 60.7672 21.6455 61.9277 22.8499 62.1116C24.539 62.407 26.2513 62.5493 27.9659 62.5367C29.3309 62.5367 30.7877 62.4103 31.4072 62.3644C34.2519 62.1575 38.0717 61.4107 41.123 60.8706C41.1515 62.3068 40.7521 63.7189 39.9759 64.9268C38.6585 66.7273 37.1761 68.4007 35.5481 69.9251C37.9192 69.6358 40.2657 69.1711 42.5683 68.5348C42.5683 68.5348 47.799 67.2478 50.0931 64.2488C50.3843 63.8828 50.6524 63.4991 50.8961 63.0998C51.1255 62.7665 50.9993 62.9504 51.2288 62.6402C51.4231 62.3888 51.6647 62.178 51.9399 62.0197C52.0664 61.9174 52.2006 61.8252 52.3414 61.7439C52.731 61.5024 53.1466 61.3058 53.5803 61.1579C53.9725 61.0192 54.3893 60.964 54.804 60.9956C55.2188 61.0273 55.6224 61.1451 55.9892 61.3417L56.3448 60.7787C56.7783 60.1975 57.1224 59.5546 57.3657 58.8713C58.1599 59.4945 59.041 59.9978 59.981 60.365C61.136 60.8006 62.3602 61.0225 63.5943 61.02H63.6746C64.8921 61.0216 66.0988 60.7916 67.2306 60.3421C68.1589 59.9827 69.0287 59.487 69.8115 58.8713C71.0736 59.2591 72.3671 59.5359 73.6772 59.6986H74.0901C74.9774 59.8005 75.8698 59.8503 76.7628 59.848C77.0266 59.848 77.302 59.848 77.5658 59.848V59.779C77.5955 59.2835 77.6999 58.7954 77.8755 58.3312V58.2738C77.9741 58.04 78.0891 57.8134 78.2196 57.5958C78.2196 57.5384 78.277 57.5039 78.2999 57.4465C80.1899 57.3148 82.0535 56.9283 83.8403 56.2974L84.2533 56.1481C85.2472 55.7598 86.2131 55.3029 87.1439 54.7807C87.1439 54.6543 87.1439 54.5394 87.1439 54.413L87.8207 53.9304H87.8781V54.413L88.4287 54.0683L88.7728 53.8385L89.0366 53.6661L88.8072 53.1835C89.0022 53.0226 89.2087 52.8503 89.3922 52.6664C89.3922 52.6664 89.3922 52.6664 89.3922 52.7354C89.3922 52.8043 89.5413 53.0916 89.6216 53.2754L89.7478 53.172C90.0346 52.9537 90.3213 52.7354 90.5852 52.5056L91.1358 52.046C91.4226 51.7932 91.7093 51.5404 91.9961 51.2646L92.2829 50.9544C92.3517 50.9544 92.409 50.828 92.4779 50.759L92.994 50.219C93.2349 49.9547 93.4529 49.6789 93.6823 49.3917C93.8314 49.2078 93.9347 49.0699 94.0723 48.8746L94.382 48.4494C95.374 47.0133 96.2049 45.4719 96.8597 43.8533L97.2038 42.8996C97.3759 42.394 97.5136 41.8654 97.6512 41.3484C95.313 42.7763 92.7488 43.7944 90.069 44.3589ZM70.9586 48.7367C70.821 48.8236 70.6624 48.8713 70.4998 48.8746C70.2716 48.8746 70.0528 48.7838 69.8914 48.6222C69.7301 48.4606 69.6394 48.2414 69.6394 48.0128C69.6452 47.8766 69.6805 47.7433 69.7427 47.6221C69.8164 47.4848 69.9255 47.3697 70.0586 47.2889C70.1918 47.2081 70.3441 47.1644 70.4998 47.1625C70.7229 47.1655 70.9359 47.2565 71.0926 47.4156C71.2493 47.5747 71.3371 47.7893 71.3371 48.0128C71.3388 48.1554 71.305 48.2962 71.239 48.4226C71.1729 48.5489 71.0765 48.6568 70.9586 48.7367Z" fill="#FDCC68"/>
</svg>
