<svg width="94" height="103" viewBox="0 0 94 103" fill="none" xmlns="http://www.w3.org/2000/svg">
<path d="M82.3243 44.9395H12.1259C11.5555 44.9395 11.0085 45.1661 10.6051 45.5695C10.2018 45.9728 9.97517 46.5198 9.97517 47.0903V96.934C9.97517 97.5044 10.2018 98.0514 10.6051 98.4548C11.0085 98.8581 11.5555 99.0847 12.1259 99.0847H82.3243C82.8947 99.0847 83.4417 98.8581 83.8451 98.4548C84.2484 98.0514 84.4751 97.5044 84.4751 96.934V47.0903C84.4751 46.5198 84.2484 45.9728 83.8451 45.5695C83.4417 45.1661 82.8947 44.9395 82.3243 44.9395ZM61.9631 78.4774C61.9631 78.7598 61.9075 79.0395 61.7994 79.3004C61.6913 79.5614 61.5329 79.7985 61.3332 79.9982C61.1335 80.1979 60.8964 80.3564 60.6354 80.4645C60.3745 80.5726 60.0948 80.6282 59.8123 80.6282H34.6379C34.0674 80.6282 33.5204 80.4016 33.117 79.9982C32.7137 79.5949 32.4871 79.0478 32.4871 78.4774V61.3586C32.4871 60.7882 32.7137 60.2411 33.117 59.8378C33.5204 59.4344 34.0674 59.2078 34.6379 59.2078H59.8123C60.0948 59.2078 60.3745 59.2635 60.6354 59.3716C60.8964 59.4797 61.1335 59.638 61.3332 59.8378C61.5329 60.0375 61.6913 60.2746 61.7994 60.5356C61.9075 60.7965 61.9631 61.0762 61.9631 61.3586V78.4774Z" fill="#FFD680"/>
<path d="M90.9546 45.0354L51.6575 5.73837C50.4517 4.53278 48.8165 3.85547 47.1114 3.85547C45.4063 3.85547 43.771 4.53278 42.5653 5.73837L3.4917 44.8119L90.9546 45.0354Z" fill="#FFD680"/>
<path d="M82.3243 44.9395L82.3243 47.9395L82.3243 44.9395ZM12.1259 44.9395V47.9395V44.9395ZM10.6051 45.5695L8.4838 43.4482L8.4838 43.4482L10.6051 45.5695ZM9.97517 96.934L6.97517 96.934L9.97517 96.934ZM10.6051 98.4548L12.7264 96.3334L12.7264 96.3334L10.6051 98.4548ZM83.8451 98.4548L81.7238 96.3334L81.7238 96.3335L83.8451 98.4548ZM83.8451 45.5695L81.7238 47.6908L81.7238 47.6908L83.8451 45.5695ZM60.6354 80.4645L59.4874 77.6928L59.4873 77.6929L60.6354 80.4645ZM33.117 79.9982L30.9957 82.1195L30.9957 82.1196L33.117 79.9982ZM33.117 59.8378L30.9957 57.7164L30.9957 57.7164L33.117 59.8378ZM60.6354 59.3716L59.4874 62.1432L59.4874 62.1432L60.6354 59.3716ZM61.3332 59.8378L63.4545 57.7164L63.4545 57.7164L61.3332 59.8378ZM61.7994 60.5356L59.0278 61.6836L59.0278 61.6836L61.7994 60.5356ZM90.9546 45.0354L90.9469 48.0354C92.1617 48.0385 93.2584 47.3087 93.7247 46.187C94.191 45.0652 93.9349 43.773 93.0759 42.9141L90.9546 45.0354ZM51.6575 5.73837L53.7788 3.61705L53.7787 3.61689L51.6575 5.73837ZM47.1114 3.85547L47.1114 0.855469L47.1114 3.85547ZM42.5653 5.73837L40.4441 3.61689L40.444 3.61705L42.5653 5.73837ZM3.4917 44.8119L1.37038 42.6906C0.513372 43.5476 0.256218 44.8361 0.718596 45.9564C1.18097 47.0767 2.27205 47.8088 3.48403 47.8119L3.4917 44.8119ZM82.3243 44.9395V41.9395H12.1259V44.9395V47.9395H82.3243V44.9395ZM12.1259 44.9395L12.1259 41.9395C10.7599 41.9395 9.44975 42.4822 8.4838 43.4482L10.6051 45.5695L12.7264 47.6908C12.5672 47.85 12.3512 47.9395 12.1259 47.9395L12.1259 44.9395ZM10.6051 45.5695L8.4838 43.4482C7.51789 44.4141 6.97517 45.7241 6.97517 47.0903H9.97517H12.9752C12.9752 47.3156 12.8856 47.5316 12.7264 47.6908L10.6051 45.5695ZM9.97517 47.0903H6.97517V96.934H9.97517H12.9752V47.0903H9.97517ZM9.97517 96.934L6.97517 96.934C6.97517 98.3001 7.51789 99.6102 8.4838 100.576L10.6051 98.4548L12.7264 96.3334C12.8856 96.4926 12.9752 96.7087 12.9752 96.934L9.97517 96.934ZM10.6051 98.4548L8.48379 100.576C9.44975 101.542 10.7599 102.085 12.1259 102.085V99.0847V96.0847C12.3512 96.0847 12.5672 96.1742 12.7264 96.3334L10.6051 98.4548ZM12.1259 99.0847V102.085H82.3243V99.0847V96.0847H12.1259V99.0847ZM82.3243 99.0847V102.085C83.6903 102.085 85.0005 101.542 85.9664 100.576L83.8451 98.4548L81.7238 96.3335C81.883 96.1742 82.099 96.0847 82.3243 96.0847V99.0847ZM83.8451 98.4548L85.9664 100.576C86.9323 99.6102 87.4751 98.3001 87.4751 96.934H84.4751H81.4751C81.4751 96.7087 81.5646 96.4926 81.7238 96.3334L83.8451 98.4548ZM84.4751 96.934H87.4751V47.0903H84.4751H81.4751V96.934H84.4751ZM84.4751 47.0903H87.4751C87.4751 45.7241 86.9323 44.414 85.9664 43.4481L83.8451 45.5695L81.7238 47.6908C81.5646 47.5316 81.4751 47.3156 81.4751 47.0903H84.4751ZM83.8451 45.5695L85.9664 43.4482C85.0005 42.4822 83.6903 41.9395 82.3243 41.9395L82.3243 44.9395L82.3243 47.9395C82.099 47.9395 81.883 47.8501 81.7238 47.6908L83.8451 45.5695ZM61.9631 78.4774H58.9631C58.9631 78.366 58.9851 78.2555 59.0278 78.1524L61.7994 79.3004L64.5711 80.4485C64.83 79.8234 64.9631 79.1536 64.9631 78.4774H61.9631ZM61.7994 79.3004L59.0278 78.1524C59.0705 78.0494 59.133 77.9558 59.2119 77.8769L61.3332 79.9982L63.4545 82.1196C63.9328 81.6412 64.3122 81.0734 64.5711 80.4485L61.7994 79.3004ZM61.3332 79.9982L59.2119 77.8769C59.2906 77.7982 59.3842 77.7356 59.4874 77.6928L60.6354 80.4645L61.7835 83.2361C62.4085 82.9772 62.9763 82.5977 63.4545 82.1196L61.3332 79.9982ZM60.6354 80.4645L59.4873 77.6929C59.5905 77.6501 59.701 77.6282 59.8123 77.6282V80.6282V83.6282C60.4886 83.6282 61.1584 83.495 61.7835 83.2361L60.6354 80.4645ZM59.8123 80.6282V77.6282H34.6379V80.6282V83.6282H59.8123V80.6282ZM34.6379 80.6282V77.6282C34.8631 77.6282 35.0791 77.7177 35.2384 77.8769L33.117 79.9982L30.9957 82.1196C31.9617 83.0855 33.2718 83.6282 34.6379 83.6282V80.6282ZM33.117 79.9982L35.2384 77.8769C35.3977 78.0362 35.4871 78.2522 35.4871 78.4774H32.4871H29.4871C29.4871 79.8434 30.0297 81.1536 30.9957 82.1195L33.117 79.9982ZM32.4871 78.4774H35.4871V61.3586H32.4871H29.4871V78.4774H32.4871ZM32.4871 61.3586H35.4871C35.4871 61.5838 35.3976 61.7998 35.2384 61.9591L33.117 59.8378L30.9957 57.7164C30.0297 58.6824 29.4871 59.9926 29.4871 61.3586H32.4871ZM33.117 59.8378L35.2384 61.9591C35.0791 62.1183 34.8631 62.2078 34.6379 62.2078V59.2078V56.2078C33.2718 56.2078 31.9617 56.7505 30.9957 57.7164L33.117 59.8378ZM34.6379 59.2078V62.2078H59.8123V59.2078V56.2078H34.6379V59.2078ZM59.8123 59.2078V62.2078C59.7004 62.2078 59.59 62.1857 59.4874 62.1432L60.6354 59.3716L61.7835 56.5999C61.1589 56.3412 60.4891 56.2078 59.8123 56.2078V59.2078ZM60.6354 59.3716L59.4874 62.1432C59.3846 62.1007 59.2909 62.0382 59.2119 61.9591L61.3332 59.8378L63.4545 57.7164C62.976 57.2379 62.4081 56.8587 61.7835 56.5999L60.6354 59.3716ZM61.3332 59.8378L59.2119 61.9591C59.133 61.8802 59.0705 61.7866 59.0278 61.6836L61.7994 60.5356L64.5711 59.3875C64.3122 58.7626 63.9328 58.1947 63.4545 57.7164L61.3332 59.8378ZM61.7994 60.5356L59.0278 61.6836C58.9851 61.5804 58.9631 61.47 58.9631 61.3586H61.9631H64.9631C64.9631 60.6824 64.83 60.0126 64.5711 59.3875L61.7994 60.5356ZM61.9631 61.3586H58.9631V78.4774H61.9631H64.9631V61.3586H61.9631ZM90.9546 45.0354L93.0759 42.9141L53.7788 3.61705L51.6575 5.73837L49.5362 7.85969L88.8332 47.1567L90.9546 45.0354ZM51.6575 5.73837L53.7787 3.61689C52.0103 1.84882 49.6121 0.855469 47.1114 0.855469L47.1114 3.85547L47.1114 6.85547C48.0209 6.85547 48.8932 7.21675 49.5364 7.85985L51.6575 5.73837ZM47.1114 3.85547L47.1114 0.855469C44.6107 0.855469 42.2124 1.84882 40.4441 3.61689L42.5653 5.73837L44.6864 7.85985C45.3296 7.21675 46.2019 6.85547 47.1114 6.85547L47.1114 3.85547ZM42.5653 5.73837L40.444 3.61705L1.37038 42.6906L3.4917 44.8119L5.61302 46.9332L44.6866 7.85969L42.5653 5.73837ZM3.4917 44.8119L3.48403 47.8119L90.9469 48.0354L90.9546 45.0354L90.9622 42.0354L3.49936 41.8119L3.4917 44.8119Z" fill="#FFD680"/>
</svg>
