<svg width="68" height="102" viewBox="0 0 68 102" fill="none" xmlns="http://www.w3.org/2000/svg">
<path d="M33.8784 0.914065C25.0365 0.914065 16.5568 4.42652 10.3046 10.6787C4.05246 16.9308 0.540039 25.4105 0.540039 34.2524C0.540039 52.6641 27.0908 101.17 34.0714 101.17C41.052 101.17 67.2302 52.6641 67.2302 34.2524C67.2302 29.8732 66.3675 25.5369 64.6912 21.4912C63.015 17.4455 60.5581 13.7698 57.4609 10.6739C54.3637 7.57795 50.6869 5.12248 46.6405 3.44787C42.5942 1.77326 38.2576 0.912286 33.8784 0.914065ZM29.543 78.1379L29.4007 75.2014C29.3635 74.5239 29.3127 73.7517 29.289 72.9998H29.2449C29.0824 73.562 28.9062 74.0565 28.5675 74.9981L27.3855 78.1006H26.5726L25.4786 75.0523C25.2889 74.4663 25.0213 73.5755 24.8689 73.0201H24.8418C24.8147 73.7449 24.7775 74.5578 24.7402 75.2318L24.5878 78.1446H23.5548L24.0154 71.9905H25.3702L26.4913 75.0929C26.6437 75.5502 26.9079 76.3021 27.0502 76.7865H27.0739C27.2161 76.3258 27.5582 75.347 27.7987 74.673L28.7911 71.9905H30.1764L30.5997 78.1379H29.543ZM29.7361 67.3536C28.2247 68.5269 26.4036 69.2332 24.4963 69.3858C23.7524 69.4871 23.0013 69.5268 22.2508 69.5044V67.8109C22.9075 67.8417 23.5658 67.8179 24.2186 67.7398C25.5889 67.6086 26.8949 67.0958 27.9883 66.2596C29.2665 65.2554 30.1142 63.8021 30.3593 62.1952H30.2746C29.2788 63.2282 27.8359 63.8379 26.0341 63.8379C22.7927 63.8379 20.7131 61.7718 20.7131 59.1638C20.7131 56.2747 23.1788 53.7446 26.8673 53.7446C30.5557 53.7446 32.825 56.2815 32.825 60.1799C32.8386 63.5466 31.5108 65.8938 29.7361 67.3502V67.3536ZM37.2891 78.1379H36.2188V75.5333C36.2188 74.5172 36.2459 74.0058 36.2967 73.0134H36.2594C35.8632 73.8025 35.582 74.297 35.2433 74.9202C34.6574 75.8753 33.9834 77.0574 33.3229 78.1379H32.0392V71.9837H33.0926V74.5781C33.0926 75.557 33.0926 76.1666 33.0316 77.0439H33.0689C33.438 76.2953 33.6548 75.8618 34.0613 75.1505L35.9817 71.9701H37.2925L37.2891 78.1379ZM44.2189 78.1379H43.1317V75.3538H40.2053V78.1379H39.0673V71.9837H40.1748V74.4629H43.1317V71.9837H44.2358L44.2189 78.1379ZM40.7608 69.5349C37.2417 69.5349 34.8572 66.7406 34.803 61.6905C34.803 56.5694 37.4076 53.7514 41.0656 53.7514C44.8624 53.7514 47.0233 56.6168 47.0233 61.4806C47.0301 66.6695 44.7574 69.5349 40.7608 69.5349ZM33.8716 51.6176C31.5944 51.6176 29.3396 51.169 27.2358 50.2975C25.132 49.426 23.2205 48.1486 21.6105 46.5382C20.0005 44.9279 18.7234 43.0161 17.8523 40.9121C16.9812 38.8082 16.533 36.5533 16.5335 34.2761C16.5335 29.6777 18.3602 25.2677 21.6117 22.0162C24.8632 18.7647 29.2732 16.938 33.8716 16.938C36.1487 16.9376 38.4037 17.3857 40.5076 18.2569C42.6116 19.128 44.5233 20.4049 46.1337 22.015C47.744 23.625 49.0214 25.5366 49.893 27.6403C50.7645 29.7441 51.2131 31.9989 51.2131 34.2761C51.2131 38.8742 49.387 43.284 46.1363 46.536C42.8856 49.7879 38.4764 51.6158 33.8784 51.6176H33.8716Z" fill="#FFD680"/>
<path d="M26.6868 55.3271C24.6072 55.3271 23.1372 56.8751 23.1372 59.036C23.1372 60.9395 24.492 62.2773 26.6021 62.2773C28.2381 62.2773 29.5116 61.5999 30.1517 60.682C30.3049 60.462 30.3822 60.198 30.3719 59.9301C30.3719 57.3221 29.244 55.3271 26.6868 55.3271Z" fill="#FFD680"/>
<path d="M40.936 55.3477C38.8022 55.3477 37.251 57.5526 37.251 61.7119C37.251 65.6814 38.6905 67.9371 40.9089 67.9371C43.4018 67.9371 44.594 65.4715 44.594 61.5696C44.594 57.8134 43.4729 55.3477 40.936 55.3477Z" fill="#FFD680"/>
</svg>
