<svg width="97" height="76" viewBox="0 0 97 76" fill="none" xmlns="http://www.w3.org/2000/svg">
<path d="M3.02295 28.29H94.2065" stroke="#FFD680" stroke-width="5" stroke-linecap="round" stroke-linejoin="round"/>
<path d="M13.3555 28.903L35.8474 2.76367" stroke="#FFD680" stroke-width="5" stroke-linecap="round" stroke-linejoin="round"/>
<path d="M82.6558 28.2951L61.3796 2.76367" stroke="#FFD680" stroke-width="5" stroke-linecap="round" stroke-linejoin="round"/>
<path d="M88.8481 31.1016L72.5278 72.9258L72.4185 73.2051H24.8042L24.6831 72.9033L7.79541 30.7939L88.8481 31.1016ZM69.4868 35.5889C68.0566 35.5889 66.6868 36.1596 65.6782 37.1719C64.9905 37.8621 64.5095 38.7193 64.2729 39.6475C64.0364 38.7194 63.5554 37.8621 62.8677 37.1719C61.8592 36.1597 60.4892 35.589 59.0591 35.5889C57.6288 35.5889 56.2581 36.1596 55.2495 37.1719C54.5618 37.8621 54.0808 38.7194 53.8442 39.6475C53.6076 38.7193 53.1267 37.8621 52.439 37.1719C51.4304 36.1596 50.0606 35.5889 48.6304 35.5889C47.2001 35.5889 45.8304 36.1596 44.8218 37.1719C44.134 37.8622 43.6521 38.7192 43.4155 39.6475C43.179 38.7195 42.6989 37.8621 42.0112 37.1719C41.0027 36.1597 39.6327 35.589 38.2026 35.5889C36.7724 35.5889 35.4017 36.1596 34.3931 37.1719C33.7054 37.8621 33.2243 38.7194 32.9878 39.6475C32.7512 38.7193 32.2703 37.8621 31.5825 37.1719C30.5739 36.1596 29.2042 35.5889 27.7739 35.5889C26.3437 35.5889 24.9739 36.1596 23.9653 37.1719C22.9571 38.1838 22.3921 39.5542 22.3921 40.9814V63.0137C22.3921 64.4408 22.9572 65.8113 23.9653 66.8232C24.9739 67.8355 26.3437 68.4062 27.7739 68.4062C29.2042 68.4062 30.5739 67.8355 31.5825 66.8232C32.2705 66.1327 32.7513 65.2752 32.9878 64.3467C33.2242 65.2752 33.7052 66.1327 34.3931 66.8232C35.4017 67.8355 36.7724 68.4062 38.2026 68.4062C39.6327 68.4061 41.0027 67.8354 42.0112 66.8232C42.6991 66.1328 43.1791 65.2751 43.4155 64.3467C43.652 65.2753 44.1337 66.1326 44.8218 66.8232C45.8304 67.8355 47.2001 68.4062 48.6304 68.4062C50.0606 68.4062 51.4304 67.8355 52.439 66.8232C53.127 66.1327 53.6078 65.2753 53.8442 64.3467C54.0806 65.2752 54.5616 66.1327 55.2495 66.8232C56.2581 67.8355 57.6288 68.4062 59.0591 68.4062C60.4892 68.4061 61.8592 67.8354 62.8677 66.8232C63.5556 66.1327 64.0365 65.2752 64.2729 64.3467C64.5094 65.2752 64.9903 66.1327 65.6782 66.8232C66.6868 67.8355 68.0566 68.4062 69.4868 68.4062C70.9169 68.4062 72.2868 67.8363 73.2954 66.8242V66.8232C74.3036 65.8113 74.8687 64.4409 74.8687 63.0137V40.9814C74.8686 39.5542 74.3036 38.1838 73.2954 37.1719C72.2868 36.1597 70.917 35.5889 69.4868 35.5889Z" fill="#FFD680" stroke="#FFD680" stroke-width="5"/>
</svg>
