<svg width="83" height="82" viewBox="0 0 83 82" fill="none" xmlns="http://www.w3.org/2000/svg">
<path d="M43.229 20.2939C40.2859 20.2939 38.0565 20.5269 36.8965 20.836V41.0671C38.368 41.4521 40.2172 41.6067 42.4564 41.6067C50.5646 41.6067 55.5065 37.6679 55.5065 30.4868C55.5065 23.6196 50.6431 20.2939 43.229 20.2939Z" fill="#FFD680" stroke="#C0BFB2" stroke-miterlimit="10"/>
<path d="M71.0972 0.808594H11.5344C8.73285 0.808594 6.04607 1.92152 4.06509 3.90249C2.08411 5.88347 0.971191 8.57025 0.971191 11.3718V70.9346C0.971191 73.7361 2.08411 76.4229 4.06509 78.4039C6.04607 80.3848 8.73285 81.4977 11.5344 81.4977H71.0972C73.8987 81.4977 76.5855 80.3848 78.5665 78.4039C80.5475 76.4229 81.6603 73.7361 81.6603 70.9346V11.3718C81.6603 8.57025 80.5475 5.88347 78.5665 3.90249C76.5855 1.92152 73.8987 0.808594 71.0972 0.808594ZM58.2213 41.2954C54.67 45.0797 48.8795 47.0099 42.314 47.0099C40.3078 47.0099 38.4537 46.9338 36.9184 46.5463V67.3931H30.2008V15.9679C34.4641 15.277 38.7775 14.9415 43.0963 14.9648C49.7379 14.9648 54.6013 16.5099 57.6915 19.2886C60.5487 21.7608 62.2459 25.5426 62.2459 30.1755C62.2263 34.8991 60.8381 38.5927 58.2213 41.2954Z" fill="#FFD680" stroke="#C0BFB2" stroke-miterlimit="10"/>
</svg>
