<svg width="94" height="147" viewBox="0 0 94 147" fill="none" xmlns="http://www.w3.org/2000/svg">
<path d="M8.45752 73.9932L16.4269 144.603H76.4965L84.6049 73.9932H8.45752Z" stroke="#FFD680" stroke-width="3" stroke-linecap="round" stroke-linejoin="round"/>
<path d="M65.2188 73.9937L88.7552 46.3037" stroke="#FFD680" stroke-width="3" stroke-linecap="round" stroke-linejoin="round"/>
<path d="M18.1471 31.0723C16.3111 31.0723 14.5503 31.8745 13.2521 33.3025C11.9539 34.7306 11.2246 36.6674 11.2246 38.6869C11.2246 40.7065 11.9539 42.6434 13.2521 44.0715C14.5503 45.4995 16.3111 46.3017 18.1471 46.3017" stroke="#FFD680" stroke-width="3" stroke-linecap="round" stroke-linejoin="round"/>
<path d="M18.1484 31.0764C19.2397 31.0764 20.3203 30.8973 21.3284 30.5492C22.3366 30.2012 23.2525 29.6911 24.0239 29.0481C24.7954 28.405 25.4072 27.6417 25.8244 26.8016C26.2416 25.9615 26.456 25.0611 26.4554 24.152C26.4554 22.3165 25.5802 20.5563 24.0223 19.2584C22.4645 17.9605 20.3516 17.2314 18.1484 17.2314" stroke="#FFD680" stroke-width="3" stroke-linecap="round" stroke-linejoin="round"/>
<path d="M18.1484 60.1487C20.3516 60.1487 22.4645 59.4193 24.0223 58.1211C25.5802 56.8229 26.4554 55.0621 26.4554 53.2262C26.4554 51.3902 25.5802 49.6294 24.0223 48.3312C22.4645 47.033 20.3516 46.3037 18.1484 46.3037" stroke="#FFD680" stroke-width="3" stroke-linecap="round" stroke-linejoin="round"/>
<path d="M52.7582 15.8457C51.6673 15.8457 50.587 16.0426 49.5792 16.4252C48.5713 16.8078 47.6556 17.3685 46.8842 18.0754C46.1128 18.7823 45.5009 19.6215 45.0835 20.5451C44.666 21.4687 44.4512 22.4586 44.4512 23.4583C44.4506 24.4584 44.665 25.4488 45.0822 26.3729C45.4994 27.2969 46.1112 28.1366 46.8826 28.844C47.654 29.5513 48.57 30.1124 49.5781 30.4953C50.5863 30.8781 51.6669 31.0752 52.7582 31.0752" stroke="#FFD680" stroke-width="3" stroke-linecap="round" stroke-linejoin="round"/>
<path d="M52.7632 15.845C54.5992 15.845 56.3599 15.1157 57.6581 13.8175C58.9564 12.5192 59.6857 10.7584 59.6857 8.92244C59.6857 7.08648 58.9564 5.32574 57.6581 4.02752C56.3599 2.7293 54.5992 2 52.7632 2" stroke="#FFD680" stroke-width="3" stroke-linecap="round" stroke-linejoin="round"/>
<path d="M52.7632 44.9172C53.6723 44.9172 54.5724 44.7382 55.4123 44.3903C56.2522 44.0424 57.0153 43.5325 57.6581 42.8897C58.301 42.2469 58.8109 41.4837 59.1587 40.6438C59.5066 39.8039 59.6857 38.9038 59.6857 37.9947C59.6857 36.1587 58.9564 34.398 57.6581 33.0998C56.3599 31.8016 54.5992 31.0723 52.7632 31.0723" stroke="#FFD680" stroke-width="3" stroke-linecap="round" stroke-linejoin="round"/>
<path d="M38.9194 64.3095C40.7554 64.3095 42.5161 63.5072 43.8144 62.0792C45.1126 60.6511 45.8419 58.7143 45.8419 56.6948C45.8419 54.6752 45.1126 52.7384 43.8144 51.3103C42.5161 49.8823 40.7554 49.0801 38.9194 49.0801" stroke="#FFD680" stroke-width="3" stroke-linecap="round" stroke-linejoin="round"/>
<path d="M38.7512 64.3057C37.8636 64.3057 36.9846 64.486 36.1645 64.8363C35.3445 65.1867 34.5994 65.7003 33.9719 66.3477C33.3444 66.9951 32.8468 67.7636 32.5074 68.6094C32.168 69.4552 31.9937 70.3615 31.9941 71.2768C31.9941 75.1244 35.1852 73.7636 38.9166 73.7636" stroke="#FFD680" stroke-width="3" stroke-linecap="round" stroke-linejoin="round"/>
<path d="M38.9166 35.2246C37.0807 35.2246 35.3199 35.9539 34.0217 37.2521C32.7234 38.5503 31.9941 40.3111 31.9941 42.147C31.9941 43.983 32.7234 45.7438 34.0217 47.0421C35.3199 48.3403 37.0807 49.0696 38.9166 49.0696" stroke="#FFD680" stroke-width="3" stroke-linecap="round" stroke-linejoin="round"/>
<path d="M89.2129 108.612L3.41633 108.447L1.53467 89.2295H91.527L89.2129 108.612Z" fill="#FFD680" stroke="#FFD680" stroke-width="3" stroke-linecap="round" stroke-linejoin="round"/>
<path d="M47.2227 144.603V73.9932" stroke="#FFD680" stroke-width="3" stroke-linecap="round" stroke-linejoin="round"/>
<path d="M61.0689 144.586L66.5702 75.4549" stroke="#FFD680" stroke-width="3" stroke-linecap="round" stroke-linejoin="round"/>
<path d="M33.4131 144.513L27.8062 75.46" stroke="#FFD680" stroke-width="3" stroke-linecap="round" stroke-linejoin="round"/>
</svg>
